<svg xmlns="http://www.w3.org/2000/svg" xmlns:xlink="http://www.w3.org/1999/xlink" viewBox="0 0 256 256"><defs><style>.cls-1{fill:none;clip-rule:evenodd;}.cls-2{fill:#e0cb9a;}.cls-10,.cls-12,.cls-13,.cls-14,.cls-15,.cls-17,.cls-18,.cls-19,.cls-2,.cls-4,.cls-7,.cls-70{fill-rule:evenodd;}.cls-3{clip-path:url(#clip-path);}.cls-4{fill:#c7b489;}.cls-5{clip-path:url(#clip-path-2);}.cls-6,.cls-7{fill:#615843;}.cls-8{fill:#a77e00;}.cls-70,.cls-9{fill:#b88b00;}.cls-10{fill:#ecb100;}.cls-11{clip-path:url(#clip-path-3);}.cls-12{fill:#d8a300;}.cls-13{fill:#ffdb6c;}.cls-14{fill:#ffc002;}.cls-15{fill:#ffcf3b;}.cls-16{clip-path:url(#clip-path-4);}.cls-17{fill:#ffde7a;}.cls-18{fill:#d09c00;}.cls-19{fill:#e1a900;}.cls-20{clip-path:url(#clip-path-5);}.cls-21{clip-path:url(#clip-path-6);}.cls-22{clip-path:url(#clip-path-7);}.cls-23{clip-path:url(#clip-path-8);}.cls-24{clip-path:url(#clip-path-9);}.cls-25{clip-path:url(#clip-path-10);}.cls-26{clip-path:url(#clip-path-11);}.cls-27{clip-path:url(#clip-path-12);}.cls-28{clip-path:url(#clip-path-13);}.cls-29{clip-path:url(#clip-path-14);}.cls-30{clip-path:url(#clip-path-15);}.cls-31{clip-path:url(#clip-path-16);}.cls-32{clip-path:url(#clip-path-17);}.cls-33{clip-path:url(#clip-path-18);}.cls-34{clip-path:url(#clip-path-19);}.cls-35{clip-path:url(#clip-path-20);}.cls-36{clip-path:url(#clip-path-21);}.cls-37{clip-path:url(#clip-path-22);}.cls-38{clip-path:url(#clip-path-23);}.cls-39{clip-path:url(#clip-path-24);}.cls-40{clip-path:url(#clip-path-25);}.cls-41{clip-path:url(#clip-path-26);}.cls-42{clip-path:url(#clip-path-27);}.cls-43{clip-path:url(#clip-path-28);}.cls-44{clip-path:url(#clip-path-29);}.cls-45{clip-path:url(#clip-path-30);}.cls-46{clip-path:url(#clip-path-31);}.cls-47{clip-path:url(#clip-path-32);}.cls-48{clip-path:url(#clip-path-33);}.cls-49{clip-path:url(#clip-path-34);}.cls-50{clip-path:url(#clip-path-35);}.cls-51{clip-path:url(#clip-path-36);}.cls-52{clip-path:url(#clip-path-37);}.cls-53{clip-path:url(#clip-path-38);}.cls-54{clip-path:url(#clip-path-39);}.cls-55{clip-path:url(#clip-path-40);}.cls-56{clip-path:url(#clip-path-41);}.cls-57{clip-path:url(#clip-path-42);}.cls-58{clip-path:url(#clip-path-43);}.cls-59{clip-path:url(#clip-path-44);}.cls-60{clip-path:url(#clip-path-45);}.cls-61{clip-path:url(#clip-path-46);}.cls-62{clip-path:url(#clip-path-47);}.cls-63{clip-path:url(#clip-path-48);}.cls-64{clip-path:url(#clip-path-49);}.cls-65{clip-path:url(#clip-path-50);}.cls-66{clip-path:url(#clip-path-51);}.cls-67{clip-path:url(#clip-path-52);}.cls-68{clip-path:url(#clip-path-53);}.cls-69{clip-path:url(#clip-path-54);}.cls-71{clip-path:url(#clip-path-55);}.cls-72{clip-path:url(#clip-path-56);}.cls-73{clip-path:url(#clip-path-57);}</style><clipPath id="clip-path"><path class="cls-1" d="M120.71,59.39c18,0,32.7-39.46,32.7-47.53,0-6-10.57-.42-15.47-2.2C132.49,7.68,126.37,0,120.71,0S109.4,7.68,104,9.66c-5,1.83-16-4.26-16,2.2,0,5.15,14.66,47.53,32.71,47.53Z"/></clipPath><clipPath id="clip-path-2"><path class="cls-1" d="M120.71,54.11c47.8,0,86.6,85.41,86.6,102.88,0,44.71-38.8,58-86.6,58S34.1,201.7,34.1,157c0-11.15,38.81-102.88,86.61-102.88Z"/></clipPath><clipPath id="clip-path-3"><path class="cls-1" d="M175.14,209.9v-8.59c0-7.74,16.74-14,37.36-14s37.36,6.28,37.36,14v8.59c0,7.74-16.74,14-37.36,14s-37.36-6.29-37.36-14Z"/></clipPath><clipPath id="clip-path-4"><path class="cls-1" d="M212.5,187.71c20,0,36.22,6.1,36.22,13.6S232.49,214.9,212.5,214.9s-36.22-6.09-36.22-13.59,16.23-13.6,36.22-13.6Z"/></clipPath><clipPath id="clip-path-5"><path class="cls-1" d="M212.5,190.36c16.1,0,29.18,4.9,29.18,10.95s-13.08,10.95-29.18,10.95-29.18-4.91-29.18-10.95,13.08-10.95,29.18-10.95Z"/></clipPath><clipPath id="clip-path-6"><path class="cls-1" d="M175.14,199.68v-8.6c0-7.74,16.74-14,37.36-14s37.36,6.28,37.36,14v8.6c0,7.74-16.74,14-37.36,14s-37.36-6.28-37.36-14Z"/></clipPath><clipPath id="clip-path-7"><path class="cls-1" d="M212.5,177.49c20,0,36.22,6.09,36.22,13.59s-16.23,13.6-36.22,13.6-36.22-6.09-36.22-13.6,16.23-13.59,36.22-13.59Z"/></clipPath><clipPath id="clip-path-8"><path class="cls-1" d="M212.5,180.13c16.1,0,29.18,4.91,29.18,11S228.6,202,212.5,202s-29.18-4.9-29.18-10.95,13.08-11,29.18-11Z"/></clipPath><clipPath id="clip-path-9"><path class="cls-1" d="M175.14,189.3v-8.59c0-7.74,16.74-14,37.36-14s37.36,6.28,37.36,14v8.59c0,7.74-16.74,14-37.36,14s-37.36-6.29-37.36-14Z"/></clipPath><clipPath id="clip-path-10"><path class="cls-1" d="M212.5,167.11c20,0,36.22,6.09,36.22,13.6S232.49,194.3,212.5,194.3s-36.22-6.09-36.22-13.59,16.23-13.6,36.22-13.6Z"/></clipPath><clipPath id="clip-path-11"><path class="cls-1" d="M212.5,169.76c16.1,0,29.18,4.9,29.18,11s-13.08,10.95-29.18,10.95-29.18-4.91-29.18-10.95,13.08-11,29.18-11Z"/></clipPath><clipPath id="clip-path-12"><path class="cls-1" d="M178.07,178.93v-8.6c0-7.73,16.74-14,37.35-14s37.36,6.29,37.36,14v8.6c0,7.74-16.74,14-37.36,14s-37.35-6.28-37.35-14Z"/></clipPath><clipPath id="clip-path-13"><path class="cls-1" d="M215.42,156.74c20,0,36.22,6.09,36.22,13.59s-16.23,13.6-36.22,13.6-36.21-6.09-36.21-13.6,16.22-13.59,36.21-13.59Z"/></clipPath><clipPath id="clip-path-14"><path class="cls-1" d="M215.42,159.38c16.11,0,29.18,4.91,29.18,11s-13.07,11-29.18,11-29.17-4.91-29.17-11,13.07-11,29.17-11Z"/></clipPath><clipPath id="clip-path-15"><path class="cls-1" d="M175.14,168.56V160c0-7.74,16.74-14,37.36-14s37.36,6.28,37.36,14v8.6c0,7.74-16.74,14-37.36,14s-37.36-6.28-37.36-14Z"/></clipPath><clipPath id="clip-path-16"><path class="cls-1" d="M212.5,146.37c20,0,36.22,6.09,36.22,13.59s-16.23,13.6-36.22,13.6-36.22-6.09-36.22-13.6,16.23-13.59,36.22-13.59Z"/></clipPath><clipPath id="clip-path-17"><path class="cls-1" d="M212.5,149c16.1,0,29.18,4.91,29.18,11s-13.08,10.95-29.18,10.95S183.32,166,183.32,160s13.08-11,29.18-11Z"/></clipPath><clipPath id="clip-path-18"><path class="cls-1" d="M181.29,158.18v-8.59c0-7.74,16.74-14,37.35-14s37.36,6.28,37.36,14v8.59c0,7.74-16.74,14-37.36,14s-37.35-6.29-37.35-14Z"/></clipPath><clipPath id="clip-path-19"><path class="cls-1" d="M218.64,136c20,0,36.22,6.09,36.22,13.6s-16.23,13.59-36.22,13.59-36.21-6.09-36.21-13.59S198.65,136,218.64,136Z"/></clipPath><clipPath id="clip-path-20"><path class="cls-1" d="M218.64,138.64c16.11,0,29.18,4.9,29.18,11s-13.07,10.95-29.18,10.95-29.17-4.91-29.17-10.95,13.07-11,29.17-11Z"/></clipPath><clipPath id="clip-path-21"><path class="cls-1" d="M175.14,147.81v-8.6c0-7.73,16.74-14,37.36-14s37.36,6.29,37.36,14v8.6c0,7.74-16.74,14-37.36,14s-37.36-6.28-37.36-14Z"/></clipPath><clipPath id="clip-path-22"><path class="cls-1" d="M212.5,125.62c20,0,36.22,6.09,36.22,13.59s-16.23,13.6-36.22,13.6-36.22-6.09-36.22-13.6,16.23-13.59,36.22-13.59Z"/></clipPath><clipPath id="clip-path-23"><path class="cls-1" d="M212.5,128.26c16.1,0,29.18,4.91,29.18,11s-13.08,11-29.18,11-29.18-4.91-29.18-11,13.08-11,29.18-11Z"/></clipPath><clipPath id="clip-path-24"><path class="cls-1" d="M177.18,136.91v-8.6c0-7.74,16.74-14,37.36-14s37.35,6.28,37.35,14v8.6c0,7.74-16.74,14-37.35,14s-37.36-6.28-37.36-14Z"/></clipPath><clipPath id="clip-path-25"><path class="cls-1" d="M214.54,114.72c20,0,36.21,6.09,36.21,13.59s-16.22,13.6-36.21,13.6-36.22-6.09-36.22-13.6,16.23-13.59,36.22-13.59Z"/></clipPath><clipPath id="clip-path-26"><path class="cls-1" d="M214.54,117.36c16.1,0,29.17,4.91,29.17,11s-13.07,11-29.17,11-29.18-4.91-29.18-11,13.07-11,29.18-11Z"/></clipPath><clipPath id="clip-path-27"><path class="cls-1" d="M175.14,127.14v-8.59c0-7.74,16.74-14,37.36-14s37.36,6.28,37.36,14v8.59c0,7.74-16.74,14-37.36,14s-37.36-6.29-37.36-14Z"/></clipPath><clipPath id="clip-path-28"><path class="cls-1" d="M212.5,105c20,0,36.22,6.1,36.22,13.6s-16.23,13.6-36.22,13.6-36.22-6.1-36.22-13.6S192.51,105,212.5,105Z"/></clipPath><clipPath id="clip-path-29"><path class="cls-1" d="M212.5,107.6c16.1,0,29.18,4.91,29.18,11s-13.08,11-29.18,11-29.18-4.91-29.18-11,13.08-11,29.18-11Z"/></clipPath><clipPath id="clip-path-30"><path class="cls-1" d="M169,116.81v-8.59c0-7.74,16.74-14,37.36-14s37.35,6.29,37.35,14v8.59c0,7.74-16.74,14-37.35,14s-37.36-6.28-37.36-14Z"/></clipPath><clipPath id="clip-path-31"><path class="cls-1" d="M206.36,94.62c20,0,36.21,6.09,36.21,13.6s-16.22,13.59-36.21,13.59-36.22-6.09-36.22-13.59,16.23-13.6,36.22-13.6Z"/></clipPath><clipPath id="clip-path-32"><path class="cls-1" d="M206.36,97.27c16.1,0,29.17,4.9,29.17,11s-13.07,11-29.17,11-29.18-4.91-29.18-11,13.07-11,29.18-11Z"/></clipPath><clipPath id="clip-path-33"><path class="cls-1" d="M138.74,242.06v-8.55c0-7.7,16.64-13.95,37.15-13.95S213,225.81,213,233.51v8.55c0,7.69-16.64,13.94-37.14,13.94s-37.15-6.25-37.15-13.94Z"/></clipPath><clipPath id="clip-path-34"><path class="cls-1" d="M175.89,220c19.87,0,36,6.06,36,13.52S195.76,247,175.89,247s-36-6.06-36-13.52S156,220,175.89,220Z"/></clipPath><clipPath id="clip-path-35"><path class="cls-1" d="M175.89,222.62c16,0,29,4.88,29,10.89s-13,10.89-29,10.89-29-4.88-29-10.89,13-10.89,29-10.89Z"/></clipPath><clipPath id="clip-path-36"><path class="cls-1" d="M138.74,231.88v-8.54c0-7.7,16.64-14,37.15-14s37.14,6.25,37.14,14v8.54c0,7.7-16.64,14-37.14,14s-37.15-6.25-37.15-14Z"/></clipPath><clipPath id="clip-path-37"><path class="cls-1" d="M175.89,209.82c19.87,0,36,6.06,36,13.52s-16.14,13.52-36,13.52-36-6.06-36-13.52,16.14-13.52,36-13.52Z"/></clipPath><clipPath id="clip-path-38"><path class="cls-1" d="M175.89,212.45c16,0,29,4.88,29,10.89s-13,10.89-29,10.89-29-4.88-29-10.89,13-10.89,29-10.89Z"/></clipPath><clipPath id="clip-path-39"><path class="cls-1" d="M135.45,221.44v-8.55c0-7.69,16.65-13.94,37.15-13.94s37.15,6.25,37.15,13.94v8.55c0,7.69-16.65,13.94-37.15,13.94s-37.15-6.25-37.15-13.94Z"/></clipPath><clipPath id="clip-path-40"><path class="cls-1" d="M172.6,199.37c19.88,0,36,6.06,36,13.52s-16.14,13.52-36,13.52-36-6.06-36-13.52,16.14-13.52,36-13.52Z"/></clipPath><clipPath id="clip-path-41"><path class="cls-1" d="M172.6,202c16,0,29,4.88,29,10.89s-13,10.89-29,10.89-29-4.88-29-10.89,13-10.89,29-10.89Z"/></clipPath><clipPath id="clip-path-42"><path class="cls-1" d="M138.74,214.11v-8.54c0-7.7,16.64-13.95,37.15-13.95S213,197.87,213,205.57v8.54c0,7.7-16.64,13.95-37.14,13.95s-37.15-6.25-37.15-13.95Z"/></clipPath><clipPath id="clip-path-43"><path class="cls-1" d="M175.89,192.05c19.87,0,36,6,36,13.52s-16.14,13.52-36,13.52-36-6.06-36-13.52,16.14-13.52,36-13.52Z"/></clipPath><clipPath id="clip-path-44"><path class="cls-1" d="M175.89,194.68c16,0,29,4.88,29,10.89s-13,10.89-29,10.89-29-4.88-29-10.89,13-10.89,29-10.89Z"/></clipPath><clipPath id="clip-path-45"><path class="cls-1" d="M141.38,200.53V192c0-7.69,16.65-13.94,37.15-13.94s37.15,6.25,37.15,13.94v8.55c0,7.7-16.64,13.94-37.15,13.94s-37.15-6.24-37.15-13.94Z"/></clipPath><clipPath id="clip-path-46"><path class="cls-1" d="M178.53,178.46c19.88,0,36,6.06,36,13.52s-16.14,13.52-36,13.52-36-6.06-36-13.52,16.13-13.52,36-13.52Z"/></clipPath><clipPath id="clip-path-47"><path class="cls-1" d="M178.53,181.09c16,0,29,4.88,29,10.89s-13,10.89-29,10.89-29-4.88-29-10.89,13-10.89,29-10.89Z"/></clipPath><clipPath id="clip-path-48"><path class="cls-1" d="M137.49,191V182.4c0-7.7,16.64-13.94,37.14-13.94s37.15,6.24,37.15,13.94V191c0,7.69-16.64,13.94-37.15,13.94s-37.14-6.25-37.14-13.94Z"/></clipPath><clipPath id="clip-path-49"><path class="cls-1" d="M174.63,168.88c19.88,0,36,6.06,36,13.52s-16.14,13.52-36,13.52-36-6.06-36-13.52,16.14-13.52,36-13.52Z"/></clipPath><clipPath id="clip-path-50"><path class="cls-1" d="M174.63,171.51c16,0,29,4.88,29,10.89s-13,10.89-29,10.89-29-4.88-29-10.89,13-10.89,29-10.89Z"/></clipPath><clipPath id="clip-path-51"><path class="cls-1" d="M148.17,183.49v-8.55c0-7.69,16.65-13.94,37.15-13.94s37.15,6.25,37.15,13.94v8.55c0,7.7-16.65,13.95-37.15,13.95s-37.15-6.25-37.15-13.95Z"/></clipPath><clipPath id="clip-path-52"><path class="cls-1" d="M185.32,161.42c19.88,0,36,6.06,36,13.52s-16.14,13.52-36,13.52-36-6.05-36-13.52,16.14-13.52,36-13.52Z"/></clipPath><clipPath id="clip-path-53"><path class="cls-1" d="M185.32,164.05c16,0,29,4.88,29,10.89s-13,10.9-29,10.9-29-4.88-29-10.9,13-10.89,29-10.89Z"/></clipPath><clipPath id="clip-path-54"><path class="cls-1" d="M37.16,153.82a36,36,0,1,1-36,36,36,36,0,0,1,36-36Z"/></clipPath><clipPath id="clip-path-55"><path class="cls-1" d="M6.12,190.4a31,31,0,1,1,31,30.5,31.06,31.06,0,0,1-31-30.5Z"/></clipPath><clipPath id="clip-path-56"><path class="cls-1" d="M64.84,166a36,36,0,1,1-36,36,36,36,0,0,1,36-36Z"/></clipPath><clipPath id="clip-path-57"><path class="cls-1" d="M33.8,202.59a31,31,0,1,1,31,30.5,31.06,31.06,0,0,1-31-30.5Z"/></clipPath></defs><path class="cls-2" d="M120.71,59.39c18,0,32.7-39.46,32.7-47.53,0-6-10.57-.42-15.47-2.2C132.49,7.68,126.37,0,120.71,0S109.4,7.68,104,9.66c-5,1.83-16-4.26-16,2.2,0,5.15,14.66,47.53,32.71,47.53Z"/><g class="cls-3"><path class="cls-4" d="M96.23,34.89S108.44,49.71,110.84,48c2.72-2,0-27.16,0-27.16s7.84,30.09,12,30.09,7.29-18.68,7.29-18.68,2.27,11.91,4.55,12.76c3.08,1.15,9.48-7,9.48-7l-1.93,17.41-12.1,14.13-19.33-2.2L96.23,34.89Z"/></g><path class="cls-2" d="M120.71,54.11c47.8,0,86.6,85.41,86.6,102.88,0,44.71-38.8,58-86.6,58S34.1,201.7,34.1,157c0-11.15,38.81-102.88,86.61-102.88Z"/><g class="cls-5"><path class="cls-4" d="M134.77,56.52,121.6,59.35c-3.09.66-10.17-1.67-17.38,0-9.55,2.21-19.34,8.59-20.44,10.14-22.61,32-63.62,130.14,97.82,150.76,0,0-35.83,45.76-44.29,45.76S34.1,294,34.1,266,21.85,159.24,21.85,159.24L69,64.08c38.07-14.75,53.07-16.91,65.77-7.56Z"/></g><path class="cls-6" d="M114.93,115.41c0-2.72,2.59-4.08,6.39-4.08,4,0,10.33,2,15.63,5.16l4.37-9.4a35.42,35.42,0,0,0-15.56-5.3V91.67h-8.6v10.4c-8.75,1.44-14.34,6.75-14.34,14.42,0,17.78,26.75,12.26,26.75,21.73,0,3.08-2.81,4.8-7.47,4.8-5.3,0-12.62-2.94-17.78-7.53l-4.52,9.25a35.12,35.12,0,0,0,17.36,7.6v10.83h8.6V152.49c9.18-1.08,15.85-6.24,15.85-14.92.07-18.07-26.68-12.91-26.68-22.16Z"/><path class="cls-7" d="M107.5,58.52s17.38,1.79,26.79-.35A3.36,3.36,0,0,0,137,54.05a3.78,3.78,0,0,0-4.51-2.49c-8.49,1.93-24.15.2-24.15.2a3.6,3.6,0,0,0-4.08,3,3.54,3.54,0,0,0,3.29,3.78Z"/><path class="cls-8" d="M215.74,207.75c5.88-.26,10.15-1.5,10.15-3.58v-.8c0-4.05-14.8-3.25-16.86-4.92a8.23,8.23,0,0,1,3.86-.59,51.79,51.79,0,0,1,10,1.24l2.8-2.26c-.25-.06,0-.8,0-.8a51.49,51.49,0,0,0-10-1.28v-2.43h-5.51v2.5c-5.61.35-9.19,1.62-9.19,3.47v.8c0,4,15,3.09,16.93,4.82-.55.49-2.18.76-4.57.76A40.44,40.44,0,0,1,202,202.87l-2.9,2.22c.25.08,0,.8,0,.8a47.37,47.37,0,0,0,11.12,1.83v2.6h5.51v-2.57Z"/><path class="cls-9" d="M208.8,198c0-.66,1.66-1,4.09-1a51.79,51.79,0,0,1,10,1.24l2.8-2.26a51.49,51.49,0,0,0-10-1.28v-2.43h-5.51v2.5c-5.61.35-9.19,1.62-9.19,3.47,0,4.27,17.14,2.95,17.14,5.22,0,.74-1.8,1.16-4.78,1.16A40.44,40.44,0,0,1,202,202.87l-2.9,2.22a47.37,47.37,0,0,0,11.12,1.83v2.6h5.51V207c5.88-.26,10.15-1.5,10.15-3.58,0-4.35-17.09-3.11-17.09-5.33Z"/><path class="cls-8" d="M215.74,197.53c5.88-.26,10.15-1.5,10.15-3.59v-.8c0-4-14.8-3.25-16.86-4.91a8.06,8.06,0,0,1,3.86-.6,51.79,51.79,0,0,1,10,1.24l2.8-2.26c-.25-.06,0-.8,0-.8a51.55,51.55,0,0,0-10-1.27V182.1h-5.51v2.5c-5.61.35-9.19,1.62-9.19,3.47v.8c0,4,15,3.1,16.93,4.82-.55.49-2.18.76-4.57.76A40.44,40.44,0,0,1,202,192.64l-2.9,2.22c.25.08,0,.8,0,.8a46.85,46.85,0,0,0,11.12,1.83v2.6h5.51v-2.56Z"/><path class="cls-9" d="M208.8,187.81c0-.65,1.66-1,4.09-1a51.79,51.79,0,0,1,10,1.24l2.8-2.26a51.55,51.55,0,0,0-10-1.27V182.1h-5.51v2.5c-5.61.35-9.19,1.62-9.19,3.47,0,4.28,17.14,3,17.14,5.22,0,.74-1.8,1.16-4.78,1.16A40.44,40.44,0,0,1,202,192.64l-2.9,2.22a46.85,46.85,0,0,0,11.12,1.83v2.6h5.51v-2.57c5.88-.25,10.15-1.5,10.15-3.58,0-4.35-17.09-3.11-17.09-5.33Z"/><path class="cls-8" d="M215.74,187.15c5.88-.26,10.15-1.5,10.15-3.58v-.81c0-4-14.8-3.24-16.86-4.91.54-.4,2-.59,3.86-.59a51.79,51.79,0,0,1,10,1.24l2.8-2.26c-.25-.06,0-.8,0-.8a51.49,51.49,0,0,0-10-1.28v-2.43h-5.51v2.5c-5.61.35-9.19,1.62-9.19,3.47v.8c0,4,15,3.09,16.93,4.82-.55.49-2.18.75-4.57.75A40.08,40.08,0,0,1,202,182.26l-2.9,2.23c.25.08,0,.8,0,.8a47.37,47.37,0,0,0,11.12,1.83v2.6h5.51v-2.57Z"/><path class="cls-9" d="M208.8,177.44c0-.66,1.66-1,4.09-1a51.87,51.87,0,0,1,10,1.25l2.8-2.26a51.49,51.49,0,0,0-10-1.28v-2.43h-5.51v2.5c-5.61.35-9.19,1.62-9.19,3.47,0,4.27,17.14,2.94,17.14,5.22,0,.74-1.8,1.15-4.78,1.15A40.08,40.08,0,0,1,202,182.26l-2.9,2.23a47.37,47.37,0,0,0,11.12,1.83v2.6h5.51v-2.57c5.88-.26,10.15-1.5,10.15-3.59,0-4.34-17.09-3.1-17.09-5.32Z"/><path class="cls-8" d="M215.74,166.4c5.88-.25,10.15-1.5,10.15-3.58V162c0-4.05-14.8-3.25-16.86-4.91a8.06,8.06,0,0,1,3.86-.6,51.79,51.79,0,0,1,10,1.24l2.8-2.26c-.25-.06,0-.8,0-.8a51.55,51.55,0,0,0-10-1.27V151h-5.51v2.5c-5.61.35-9.19,1.62-9.19,3.47v.8c0,4,15,3.1,16.93,4.82-.55.49-2.18.76-4.57.76A40.44,40.44,0,0,1,202,161.52l-2.9,2.22c.25.08,0,.8,0,.8a46.85,46.85,0,0,0,11.12,1.83V169h5.51V166.4Z"/><path class="cls-9" d="M208.8,156.69c0-.65,1.66-1,4.09-1a51.79,51.79,0,0,1,10,1.24l2.8-2.26a51.55,51.55,0,0,0-10-1.27V151h-5.51v2.5c-5.61.35-9.19,1.62-9.19,3.47,0,4.27,17.14,3,17.14,5.22,0,.74-1.8,1.16-4.78,1.16A40.44,40.44,0,0,1,202,161.52l-2.9,2.22a46.85,46.85,0,0,0,11.12,1.83v2.6h5.51V165.6c5.88-.25,10.15-1.5,10.15-3.58,0-4.35-17.09-3.11-17.09-5.33Z"/><path class="cls-8" d="M215.74,145.66c5.88-.26,10.15-1.5,10.15-3.59v-.8c0-4-14.8-3.25-16.86-4.91a8.06,8.06,0,0,1,3.86-.6,51.79,51.79,0,0,1,10,1.24l2.8-2.26c-.25-.06,0-.8,0-.8a52.35,52.35,0,0,0-10-1.27v-2.43h-5.51v2.5c-5.61.34-9.19,1.62-9.19,3.46v.8c0,4,15,3.1,16.93,4.83-.55.49-2.18.75-4.57.75A40.44,40.44,0,0,1,202,140.77l-2.9,2.23c.25.07,0,.8,0,.8a46.89,46.89,0,0,0,11.12,1.82v2.61h5.51v-2.57Z"/><path class="cls-9" d="M208.8,135.94c0-.65,1.66-1,4.09-1a51.79,51.79,0,0,1,10,1.24l2.8-2.26a52.35,52.35,0,0,0-10-1.27v-2.43h-5.51v2.5c-5.61.34-9.19,1.62-9.19,3.46,0,4.28,17.14,3,17.14,5.23,0,.74-1.8,1.15-4.78,1.15A40.44,40.44,0,0,1,202,140.77l-2.9,2.23a46.89,46.89,0,0,0,11.12,1.82v2.61h5.51v-2.57c5.88-.26,10.15-1.5,10.15-3.59,0-4.34-17.09-3.1-17.09-5.33Z"/><path class="cls-8" d="M215.74,125c5.88-.26,10.15-1.5,10.15-3.58v-.8c0-4-14.8-3.25-16.86-4.92a8.23,8.23,0,0,1,3.86-.59,51.79,51.79,0,0,1,10,1.24l2.8-2.26c-.25-.06,0-.8,0-.8a51.49,51.49,0,0,0-10-1.28v-2.43h-5.51v2.5c-5.61.35-9.19,1.62-9.19,3.47v.8c0,4,15,3.1,16.93,4.82-.55.49-2.18.76-4.57.76A40.44,40.44,0,0,1,202,120.11l-2.9,2.22c.25.08,0,.8,0,.8A47.37,47.37,0,0,0,210.23,125v2.6h5.51V125Z"/><path class="cls-9" d="M208.8,115.28c0-.66,1.66-1,4.09-1a51.79,51.79,0,0,1,10,1.24l2.8-2.26a51.49,51.49,0,0,0-10-1.28v-2.43h-5.51v2.5c-5.61.35-9.19,1.62-9.19,3.47,0,4.27,17.14,2.95,17.14,5.22,0,.74-1.8,1.16-4.78,1.16A40.44,40.44,0,0,1,202,120.11l-2.9,2.22a47.37,47.37,0,0,0,11.12,1.83v2.6h5.51v-2.57c5.88-.26,10.15-1.5,10.15-3.58,0-4.35-17.09-3.11-17.09-5.33Z"/><path class="cls-10" d="M175.14,209.9v-8.59c0-7.74,16.74-14,37.36-14s37.36,6.28,37.36,14v8.59c0,7.74-16.74,14-37.36,14s-37.36-6.29-37.36-14Z"/><g class="cls-11"><polygon class="cls-12" points="186.17 197.22 173.46 197.22 173.46 219.89 186.17 219.89 186.17 197.22 186.17 197.22"/><polygon class="cls-13" points="245.68 197.22 230.09 197.22 230.09 225.26 245.68 225.26 245.68 197.22 245.68 197.22"/><polygon class="cls-14" points="230.09 201.31 214.5 201.31 214.5 229.35 230.09 229.35 230.09 201.31 230.09 201.31"/></g><path class="cls-10" d="M212.5,187.29c20.62,0,37.36,6.28,37.36,14s-16.74,14-37.36,14-37.36-6.28-37.36-14,16.74-14,37.36-14Z"/><path class="cls-15" d="M212.5,187.71c20,0,36.22,6.1,36.22,13.6S232.49,214.9,212.5,214.9s-36.22-6.09-36.22-13.59,16.23-13.6,36.22-13.6Z"/><g class="cls-16"><path class="cls-17" d="M259.42,192.89l-8.23-3.09-69.34,26,8.23,3.09,69.34-26Zm-10.7-4-16.49-6.2-69.35,26,16.5,6.19,69.34-26Z"/></g><path class="cls-18" d="M212.5,189.59c17.23,0,31.21,5.25,31.21,11.72S229.73,213,212.5,213s-31.21-5.25-31.21-11.72,14-11.72,31.21-11.72Z"/><path class="cls-19" d="M212.5,190.36c16.1,0,29.18,4.9,29.18,10.95s-13.08,10.95-29.18,10.95-29.18-4.91-29.18-10.95,13.08-10.95,29.18-10.95Z"/><g class="cls-20"><path class="cls-10" d="M252.78,194l-7.09-2.66L186,213.77l7.09,2.66L252.78,194Zm-9.21-3.46-14.19-5.33-59.68,22.4L183.9,213l59.67-22.4Z"/></g><path class="cls-10" d="M175.14,199.68v-8.6c0-7.74,16.74-14,37.36-14s37.36,6.28,37.36,14v8.6c0,7.74-16.74,14-37.36,14s-37.36-6.28-37.36-14Z"/><g class="cls-21"><polygon class="cls-12" points="186.17 186.99 173.46 186.99 173.46 209.66 186.17 209.66 186.17 186.99 186.17 186.99"/><polygon class="cls-13" points="245.68 186.99 230.09 186.99 230.09 215.04 245.68 215.04 245.68 186.99 245.68 186.99"/><polygon class="cls-14" points="230.09 191.08 214.5 191.08 214.5 219.13 230.09 219.13 230.09 191.08 230.09 191.08"/></g><path class="cls-10" d="M212.5,177.06c20.62,0,37.36,6.28,37.36,14s-16.74,14-37.36,14-37.36-6.28-37.36-14,16.74-14,37.36-14Z"/><path class="cls-15" d="M212.5,177.49c20,0,36.22,6.09,36.22,13.59s-16.23,13.6-36.22,13.6-36.22-6.09-36.22-13.6,16.23-13.59,36.22-13.59Z"/><g class="cls-22"><path class="cls-17" d="M259.42,182.67l-8.23-3.09-69.34,26,8.23,3.1,69.34-26Zm-10.7-4-16.49-6.19-69.35,26,16.5,6.19,69.34-26Z"/></g><path class="cls-18" d="M212.5,179.37c17.23,0,31.21,5.25,31.21,11.71s-14,11.72-31.21,11.72-31.21-5.25-31.21-11.72,14-11.71,31.21-11.71Z"/><path class="cls-19" d="M212.5,180.13c16.1,0,29.18,4.91,29.18,11S228.6,202,212.5,202s-29.18-4.9-29.18-10.95,13.08-11,29.18-11Z"/><g class="cls-23"><path class="cls-10" d="M252.78,183.8l-7.09-2.66L186,203.54l7.09,2.66,59.67-22.4Zm-9.21-3.46L229.38,175l-59.68,22.4,14.2,5.32,59.67-22.4Z"/></g><path class="cls-10" d="M175.14,189.3v-8.59c0-7.74,16.74-14,37.36-14s37.36,6.28,37.36,14v8.59c0,7.74-16.74,14-37.36,14s-37.36-6.29-37.36-14Z"/><g class="cls-24"><polygon class="cls-12" points="186.17 176.62 173.46 176.62 173.46 199.29 186.17 199.29 186.17 176.62 186.17 176.62"/><polygon class="cls-13" points="245.68 176.62 230.09 176.62 230.09 204.66 245.68 204.66 245.68 176.62 245.68 176.62"/><polygon class="cls-14" points="230.09 180.71 214.5 180.71 214.5 208.75 230.09 208.75 230.09 180.71 230.09 180.71"/></g><path class="cls-10" d="M212.5,166.69c20.62,0,37.36,6.28,37.36,14s-16.74,14-37.36,14-37.36-6.28-37.36-14,16.74-14,37.36-14Z"/><path class="cls-15" d="M212.5,167.11c20,0,36.22,6.09,36.22,13.6S232.49,194.3,212.5,194.3s-36.22-6.09-36.22-13.59,16.23-13.6,36.22-13.6Z"/><g class="cls-25"><path class="cls-17" d="M259.42,172.29l-8.23-3.09-69.34,26,8.23,3.09,69.34-26Zm-10.7-4-16.49-6.19-69.35,26,16.5,6.19,69.34-26Z"/></g><path class="cls-18" d="M212.5,169c17.23,0,31.21,5.25,31.21,11.72s-14,11.71-31.21,11.71-31.21-5.25-31.21-11.71S195.27,169,212.5,169Z"/><path class="cls-19" d="M212.5,169.76c16.1,0,29.18,4.9,29.18,11s-13.08,10.95-29.18,10.95-29.18-4.91-29.18-10.95,13.08-11,29.18-11Z"/><g class="cls-26"><path class="cls-10" d="M252.78,173.43l-7.09-2.66L186,193.17l7.09,2.66,59.67-22.4ZM243.57,170l-14.19-5.33L169.7,187l14.2,5.33L243.57,170Z"/></g><path class="cls-10" d="M178.07,178.93v-8.6c0-7.73,16.74-14,37.35-14s37.36,6.29,37.36,14v8.6c0,7.74-16.74,14-37.36,14s-37.35-6.28-37.35-14Z"/><g class="cls-27"><polygon class="cls-12" points="189.09 166.25 176.38 166.25 176.38 188.91 189.09 188.91 189.09 166.25 189.09 166.25"/><polygon class="cls-13" points="248.61 166.25 233.02 166.25 233.02 194.29 248.61 194.29 248.61 166.25 248.61 166.25"/><polygon class="cls-14" points="233.02 170.34 217.43 170.34 217.43 198.38 233.02 198.38 233.02 170.34 233.02 170.34"/></g><path class="cls-10" d="M215.42,156.31c20.62,0,37.36,6.29,37.36,14s-16.74,14-37.36,14-37.35-6.29-37.35-14,16.74-14,37.35-14Z"/><path class="cls-15" d="M215.42,156.74c20,0,36.22,6.09,36.22,13.59s-16.23,13.6-36.22,13.6-36.21-6.09-36.21-13.6,16.22-13.59,36.21-13.59Z"/><g class="cls-28"><path class="cls-17" d="M262.35,161.92l-8.24-3.09-69.34,26L193,188l69.34-26Zm-10.71-4-16.49-6.19-69.34,26,16.49,6.19,69.34-26Z"/></g><path class="cls-18" d="M215.42,158.62c17.23,0,31.22,5.25,31.22,11.71s-14,11.72-31.22,11.72-31.21-5.25-31.21-11.72,14-11.71,31.21-11.71Z"/><path class="cls-19" d="M215.42,159.38c16.11,0,29.18,4.91,29.18,11s-13.07,11-29.18,11-29.17-4.91-29.17-11,13.07-11,29.17-11Z"/><g class="cls-29"><path class="cls-10" d="M255.7,163.06l-7.08-2.66L189,182.79l7.08,2.66,59.67-22.39Zm-9.21-3.46-14.19-5.33-59.67,22.4L186.82,182l59.67-22.4Z"/></g><path class="cls-8" d="M218.66,176.78c5.88-.26,10.15-1.5,10.15-3.59v-.8c0-4-14.8-3.25-16.85-4.91.53-.4,2-.6,3.85-.6a52.77,52.77,0,0,1,10,1.24l2.8-2.25c-.25-.07,0-.81,0-.81a52.35,52.35,0,0,0-10-1.27v-2.43h-5.51v2.5c-5.6.34-9.18,1.62-9.18,3.46v.8c0,4,15,3.1,16.92,4.83-.55.49-2.18.75-4.57.75a40.44,40.44,0,0,1-11.39-1.81L202,174.12c.24.07,0,.8,0,.8a46.8,46.8,0,0,0,11.11,1.82v2.61h5.51v-2.57Z"/><path class="cls-9" d="M211.72,167.06c0-.65,1.66-1,4.09-1a52,52,0,0,1,10,1.24l2.8-2.26a52.35,52.35,0,0,0-10-1.27v-2.43h-5.51v2.5c-5.6.34-9.18,1.62-9.18,3.46,0,4.28,17.13,3,17.13,5.23,0,.74-1.8,1.15-4.78,1.15a40.44,40.44,0,0,1-11.39-1.81L202,174.12a46.8,46.8,0,0,0,11.11,1.82v2.61h5.51V176c5.88-.26,10.15-1.5,10.15-3.59.05-4.34-17.09-3.1-17.09-5.33Z"/><path class="cls-10" d="M175.14,168.56V160c0-7.74,16.74-14,37.36-14s37.36,6.28,37.36,14v8.6c0,7.74-16.74,14-37.36,14s-37.36-6.28-37.36-14Z"/><g class="cls-30"><polygon class="cls-12" points="186.17 155.87 173.46 155.87 173.46 178.54 186.17 178.54 186.17 155.87 186.17 155.87"/><polygon class="cls-13" points="245.68 155.87 230.09 155.87 230.09 183.92 245.68 183.92 245.68 155.87 245.68 155.87"/><polygon class="cls-14" points="230.09 159.96 214.5 159.96 214.5 188.01 230.09 188.01 230.09 159.96 230.09 159.96"/></g><path class="cls-10" d="M212.5,145.94c20.62,0,37.36,6.28,37.36,14s-16.74,14-37.36,14-37.36-6.28-37.36-14,16.74-14,37.36-14Z"/><path class="cls-15" d="M212.5,146.37c20,0,36.22,6.09,36.22,13.59s-16.23,13.6-36.22,13.6-36.22-6.09-36.22-13.6,16.23-13.59,36.22-13.59Z"/><g class="cls-31"><path class="cls-17" d="M259.42,151.55l-8.23-3.09-69.34,26,8.23,3.1,69.34-26Zm-10.7-4-16.49-6.19-69.35,26,16.5,6.19,69.34-26Z"/></g><path class="cls-18" d="M212.5,148.25c17.23,0,31.21,5.25,31.21,11.71s-14,11.72-31.21,11.72-31.21-5.25-31.21-11.72,14-11.71,31.21-11.71Z"/><path class="cls-19" d="M212.5,149c16.1,0,29.18,4.91,29.18,11s-13.08,10.95-29.18,10.95S183.32,166,183.32,160s13.08-11,29.18-11Z"/><g class="cls-32"><path class="cls-10" d="M252.78,152.68,245.69,150,186,172.42l7.09,2.66,59.67-22.4Zm-9.21-3.46-14.19-5.32L169.7,166.3l14.2,5.32,59.67-22.4Z"/></g><path class="cls-10" d="M181.29,158.18v-8.59c0-7.74,16.74-14,37.35-14s37.36,6.28,37.36,14v8.59c0,7.74-16.74,14-37.36,14s-37.35-6.29-37.35-14Z"/><g class="cls-33"><polygon class="cls-12" points="192.31 145.5 179.6 145.5 179.6 168.17 192.31 168.17 192.31 145.5 192.31 145.5"/><polygon class="cls-13" points="251.83 145.5 236.24 145.5 236.24 173.54 251.83 173.54 251.83 145.5 251.83 145.5"/><polygon class="cls-14" points="236.24 149.59 220.65 149.59 220.65 177.63 236.24 177.63 236.24 149.59 236.24 149.59"/></g><path class="cls-10" d="M218.64,135.57c20.62,0,37.36,6.28,37.36,14s-16.74,14-37.36,14-37.35-6.28-37.35-14,16.74-14,37.35-14Z"/><path class="cls-15" d="M218.64,136c20,0,36.22,6.09,36.22,13.6s-16.23,13.59-36.22,13.59-36.21-6.09-36.21-13.59S198.65,136,218.64,136Z"/><g class="cls-34"><path class="cls-17" d="M265.57,141.17l-8.24-3.09-69.34,26,8.24,3.09,69.34-26Zm-10.71-4L238.37,131,169,157l16.49,6.19,69.34-26Z"/></g><path class="cls-18" d="M218.64,137.87c17.23,0,31.22,5.25,31.22,11.72s-14,11.71-31.22,11.71-31.21-5.25-31.21-11.71,14-11.72,31.21-11.72Z"/><path class="cls-19" d="M218.64,138.64c16.11,0,29.18,4.9,29.18,11s-13.07,10.95-29.18,10.95-29.17-4.91-29.17-10.95,13.07-11,29.17-11Z"/><g class="cls-35"><path class="cls-10" d="M258.92,142.31l-7.08-2.66-59.67,22.4,7.08,2.66,59.67-22.4Zm-9.21-3.46-14.19-5.33-59.67,22.4L190,161.25l59.67-22.4Z"/></g><path class="cls-8" d="M221.88,156c5.88-.26,10.15-1.5,10.15-3.58v-.81c0-4-14.8-3.24-16.85-4.91.53-.4,2-.59,3.85-.59a52,52,0,0,1,10,1.24l2.8-2.26c-.25-.06,0-.8,0-.8a51.49,51.49,0,0,0-10-1.28v-2.43h-5.51v2.5c-5.6.35-9.18,1.62-9.18,3.47v.8c0,4,15,3.09,16.92,4.82-.55.49-2.18.75-4.57.75a40.08,40.08,0,0,1-11.39-1.81l-2.89,2.23c.24.08,0,.8,0,.8A47.28,47.28,0,0,0,216.37,156v2.6h5.51V156Z"/><path class="cls-9" d="M214.94,146.32c0-.66,1.66-1,4.09-1a52.06,52.06,0,0,1,10,1.25l2.8-2.26a51.49,51.49,0,0,0-10-1.28v-2.43h-5.51v2.5c-5.6.35-9.18,1.62-9.18,3.47,0,4.27,17.13,2.94,17.13,5.22,0,.74-1.8,1.15-4.78,1.15a40.08,40.08,0,0,1-11.39-1.81l-2.89,2.23a47.28,47.28,0,0,0,11.11,1.83v2.6h5.51v-2.57c5.88-.26,10.15-1.5,10.15-3.59.05-4.34-17.09-3.1-17.09-5.32Z"/><path class="cls-10" d="M175.14,147.81v-8.6c0-7.73,16.74-14,37.36-14s37.36,6.29,37.36,14v8.6c0,7.74-16.74,14-37.36,14s-37.36-6.28-37.36-14Z"/><g class="cls-36"><polygon class="cls-12" points="186.17 135.13 173.46 135.13 173.46 157.79 186.17 157.79 186.17 135.13 186.17 135.13"/><polygon class="cls-13" points="245.68 135.13 230.09 135.13 230.09 163.17 245.68 163.17 245.68 135.13 245.68 135.13"/><polygon class="cls-14" points="230.09 139.22 214.5 139.22 214.5 167.26 230.09 167.26 230.09 139.22 230.09 139.22"/></g><path class="cls-10" d="M212.5,125.19c20.62,0,37.36,6.29,37.36,14s-16.74,14-37.36,14-37.36-6.29-37.36-14,16.74-14,37.36-14Z"/><path class="cls-15" d="M212.5,125.62c20,0,36.22,6.09,36.22,13.59s-16.23,13.6-36.22,13.6-36.22-6.09-36.22-13.6,16.23-13.59,36.22-13.59Z"/><g class="cls-37"><path class="cls-17" d="M259.42,130.8l-8.23-3.09-69.34,26,8.23,3.09,69.34-26Zm-10.7-4-16.49-6.19-69.35,26,16.5,6.19,69.34-26Z"/></g><path class="cls-18" d="M212.5,127.5c17.23,0,31.21,5.25,31.21,11.71s-14,11.72-31.21,11.72-31.21-5.25-31.21-11.72,14-11.71,31.21-11.71Z"/><path class="cls-19" d="M212.5,128.26c16.1,0,29.18,4.91,29.18,11s-13.08,11-29.18,11-29.18-4.91-29.18-11,13.08-11,29.18-11Z"/><g class="cls-38"><path class="cls-10" d="M252.78,131.94l-7.09-2.66L186,151.67l7.09,2.66,59.67-22.39Zm-9.21-3.46-14.19-5.33-59.68,22.4,14.2,5.33,59.67-22.4Z"/></g><path class="cls-10" d="M177.18,136.91v-8.6c0-7.74,16.74-14,37.36-14s37.35,6.28,37.35,14v8.6c0,7.74-16.74,14-37.35,14s-37.36-6.28-37.36-14Z"/><g class="cls-39"><polygon class="cls-12" points="188.21 124.22 175.49 124.22 175.49 146.89 188.21 146.89 188.21 124.22 188.21 124.22"/><polygon class="cls-13" points="247.72 124.22 232.13 124.22 232.13 152.27 247.72 152.27 247.72 124.22 247.72 124.22"/><polygon class="cls-14" points="232.13 128.31 216.54 128.31 216.54 156.36 232.13 156.36 232.13 128.31 232.13 128.31"/></g><path class="cls-10" d="M214.54,114.29c20.61,0,37.35,6.28,37.35,14s-16.74,14-37.35,14-37.36-6.29-37.36-14,16.74-14,37.36-14Z"/><path class="cls-15" d="M214.54,114.72c20,0,36.21,6.09,36.21,13.59s-16.22,13.6-36.21,13.6-36.22-6.09-36.22-13.6,16.23-13.59,36.22-13.59Z"/><g class="cls-40"><path class="cls-17" d="M261.46,119.9l-8.24-3.09-69.34,26,8.24,3.09,69.34-26Zm-10.71-4-16.49-6.19-69.34,26,16.49,6.19,69.34-26Z"/></g><path class="cls-18" d="M214.54,116.6c17.22,0,31.21,5.25,31.21,11.71S231.76,140,214.54,140s-31.22-5.25-31.22-11.72,14-11.71,31.22-11.71Z"/><path class="cls-19" d="M214.54,117.36c16.1,0,29.17,4.91,29.17,11s-13.07,11-29.17,11-29.18-4.91-29.18-11,13.07-11,29.18-11Z"/><g class="cls-41"><path class="cls-10" d="M254.82,121l-7.09-2.66-59.67,22.4,7.08,2.66L254.82,121Zm-9.22-3.45-14.19-5.33-59.67,22.4L185.93,140l59.67-22.4Z"/></g><path class="cls-8" d="M217.77,134.76c5.88-.26,10.15-1.5,10.15-3.59,0-.14,0-.67,0-.8.05-4-14.8-3.25-16.85-4.91a8,8,0,0,1,3.86-.6,51.88,51.88,0,0,1,10,1.24l2.8-2.26c-.25-.06,0-.8,0-.8a52.35,52.35,0,0,0-10-1.27v-2.43h-5.5v2.5c-5.61.34-9.19,1.62-9.19,3.46v.8c0,4,15,3.1,16.93,4.83-.56.48-2.18.75-4.58.75A40.49,40.49,0,0,1,204,129.87l-2.89,2.22c.24.08,0,.81,0,.81a46.8,46.8,0,0,0,11.12,1.82v2.61h5.5v-2.57Z"/><path class="cls-9" d="M210.84,125c0-.65,1.65-1,4.09-1a51.88,51.88,0,0,1,10,1.24l2.8-2.26a52.35,52.35,0,0,0-10-1.27v-2.43h-5.5v2.5c-5.61.34-9.19,1.62-9.19,3.46,0,4.28,17.13,3,17.13,5.23,0,.74-1.79,1.15-4.78,1.15A40.49,40.49,0,0,1,204,129.87l-2.89,2.22a46.26,46.26,0,0,0,11.12,1.83v2.61h5.5V134c5.88-.26,10.15-1.5,10.15-3.59.05-4.34-17.08-3.1-17.08-5.33Z"/><path class="cls-10" d="M175.14,127.14v-8.59c0-7.74,16.74-14,37.36-14s37.36,6.28,37.36,14v8.59c0,7.74-16.74,14-37.36,14s-37.36-6.29-37.36-14Z"/><g class="cls-42"><polygon class="cls-12" points="186.17 114.46 173.46 114.46 173.46 137.13 186.17 137.13 186.17 114.46 186.17 114.46"/><polygon class="cls-13" points="245.68 114.46 230.09 114.46 230.09 142.5 245.68 142.5 245.68 114.46 245.68 114.46"/><polygon class="cls-14" points="230.09 118.55 214.5 118.55 214.5 146.59 230.09 146.59 230.09 118.55 230.09 118.55"/></g><path class="cls-10" d="M212.5,104.53c20.62,0,37.36,6.28,37.36,14s-16.74,14-37.36,14-37.36-6.28-37.36-14,16.74-14,37.36-14Z"/><path class="cls-15" d="M212.5,105c20,0,36.22,6.1,36.22,13.6s-16.23,13.6-36.22,13.6-36.22-6.1-36.22-13.6S192.51,105,212.5,105Z"/><g class="cls-43"><path class="cls-17" d="M259.42,110.13,251.19,107l-69.34,26,8.23,3.09,69.34-26Zm-10.7-4-16.49-6.19-69.35,26,16.5,6.2,69.34-26Z"/></g><path class="cls-18" d="M212.5,106.83c17.23,0,31.21,5.25,31.21,11.72s-14,11.72-31.21,11.72-31.21-5.25-31.21-11.72,14-11.72,31.21-11.72Z"/><path class="cls-19" d="M212.5,107.6c16.1,0,29.18,4.91,29.18,11s-13.08,11-29.18,11-29.18-4.91-29.18-11,13.08-11,29.18-11Z"/><g class="cls-44"><path class="cls-10" d="M252.78,111.27l-7.09-2.66L186,131l7.09,2.66,59.67-22.4Zm-9.21-3.46-14.19-5.32L169.7,124.88l14.2,5.33,59.67-22.4Z"/></g><path class="cls-10" d="M169,116.81v-8.59c0-7.74,16.74-14,37.36-14s37.35,6.29,37.35,14v8.59c0,7.74-16.74,14-37.35,14s-37.36-6.28-37.36-14Z"/><g class="cls-45"><polygon class="cls-12" points="180.03 104.13 167.31 104.13 167.31 126.8 180.03 126.8 180.03 104.13 180.03 104.13"/><polygon class="cls-13" points="239.54 104.13 223.95 104.13 223.95 132.17 239.54 132.17 239.54 104.13 239.54 104.13"/><polygon class="cls-14" points="223.95 108.22 208.36 108.22 208.36 136.26 223.95 136.26 223.95 108.22 223.95 108.22"/></g><path class="cls-10" d="M206.36,94.19c20.61,0,37.35,6.29,37.35,14s-16.74,14-37.35,14S169,116,169,108.22s16.74-14,37.36-14Z"/><path class="cls-15" d="M206.36,94.62c20,0,36.21,6.09,36.21,13.6s-16.22,13.59-36.21,13.59-36.22-6.09-36.22-13.59,16.23-13.6,36.22-13.6Z"/><g class="cls-46"><path class="cls-17" d="M253.28,99.8,245,96.71l-69.34,26,8.24,3.09,69.34-26Zm-10.71-4-16.49-6.19-69.34,26,16.49,6.19,69.34-26Z"/></g><path class="cls-18" d="M206.36,96.5c17.22,0,31.21,5.25,31.21,11.72s-14,11.71-31.21,11.71-31.22-5.25-31.22-11.71,14-11.72,31.22-11.72Z"/><path class="cls-19" d="M206.36,97.27c16.1,0,29.17,4.9,29.17,11s-13.07,11-29.17,11-29.18-4.91-29.18-11,13.07-11,29.18-11Z"/><g class="cls-47"><path class="cls-10" d="M246.64,100.94l-7.09-2.66-59.67,22.4,7.08,2.66,59.68-22.4Zm-9.22-3.46-14.19-5.33-59.67,22.4,14.19,5.33,59.67-22.4Z"/></g><path class="cls-8" d="M209.59,114.66c5.88-.26,10.15-1.5,10.15-3.59,0-.14,0-.66,0-.8,0-4-14.8-3.24-16.85-4.91a8,8,0,0,1,3.86-.6,52,52,0,0,1,10,1.25l2.8-2.26c-.25-.06,0-.8,0-.8a51.49,51.49,0,0,0-10-1.28V99.24h-5.5v2.5c-5.61.34-9.19,1.62-9.19,3.47v.8c0,4,15,3.09,16.93,4.82-.56.49-2.18.75-4.58.75a40.14,40.14,0,0,1-11.39-1.81L193,112c.24.07,0,.8,0,.8a47.28,47.28,0,0,0,11.12,1.83v2.6h5.5v-2.57Z"/><path class="cls-9" d="M202.66,105c0-.66,1.65-1,4.09-1a52,52,0,0,1,10,1.25l2.8-2.26a51.49,51.49,0,0,0-10-1.28V99.24h-5.5v2.5c-5.61.34-9.19,1.62-9.19,3.47,0,4.27,17.13,2.94,17.13,5.22,0,.74-1.79,1.15-4.78,1.15a40.14,40.14,0,0,1-11.39-1.81L193,112a47.28,47.28,0,0,0,11.12,1.83v2.6h5.5v-2.57c5.88-.26,10.15-1.5,10.15-3.59,0-4.34-17.08-3.1-17.08-5.32Z"/><path class="cls-10" d="M138.74,242.06v-8.55c0-7.7,16.64-13.95,37.15-13.95S213,225.81,213,233.51v8.55c0,7.69-16.64,13.94-37.14,13.94s-37.15-6.25-37.15-13.94Z"/><g class="cls-48"><polygon class="cls-12" points="149.7 229.44 137.06 229.44 137.06 251.98 149.7 251.98 149.7 229.44 149.7 229.44"/><polygon class="cls-13" points="208.89 229.44 193.38 229.44 193.38 257.33 208.89 257.33 208.89 229.44 208.89 229.44"/><polygon class="cls-14" points="193.38 233.51 177.88 233.51 177.88 261.4 193.38 261.4 193.38 233.51 193.38 233.51"/></g><path class="cls-10" d="M175.89,219.56c20.5,0,37.14,6.25,37.14,13.95s-16.64,13.94-37.14,13.94-37.15-6.25-37.15-13.94,16.64-13.95,37.15-13.95Z"/><path class="cls-15" d="M175.89,220c19.87,0,36,6.06,36,13.52S195.76,247,175.89,247s-36-6.06-36-13.52S156,220,175.89,220Z"/><g class="cls-49"><path class="cls-17" d="M222.55,225.14l-8.19-3.07L145.4,248l8.19,3.07,69-25.88Zm-10.65-4L195.5,215l-68.95,25.88L143,247l69-25.89Z"/></g><path class="cls-18" d="M175.89,221.86c17.13,0,31,5.22,31,11.65s-13.9,11.65-31,11.65-31-5.22-31-11.65,13.91-11.65,31-11.65Z"/><path class="cls-19" d="M175.89,222.62c16,0,29,4.88,29,10.89s-13,10.89-29,10.89-29-4.88-29-10.89,13-10.89,29-10.89Z"/><g class="cls-50"><path class="cls-10" d="M215.94,226.27l-7-2.65L149.55,245.9l7,2.64,59.34-22.27Zm-9.16-3.44-14.11-5.3-59.34,22.28,14.11,5.3,59.34-22.28Z"/></g><path class="cls-8" d="M179.1,239.92c5.85-.26,10.1-1.5,10.1-3.57v-.8c0-4-14.72-3.23-16.76-4.88.53-.4,1.95-.59,3.83-.59a52,52,0,0,1,10,1.23l2.79-2.25c-.25-.06,0-.79,0-.79A51.89,51.89,0,0,0,179.1,227v-2.42h-5.47v2.49c-5.58.34-9.14,1.61-9.14,3.44v.8c0,4,14.9,3.08,16.83,4.8-.54.48-2.16.75-4.54.75a40.43,40.43,0,0,1-11.33-1.8l-2.88,2.21c.24.07,0,.79,0,.79a46.44,46.44,0,0,0,11.06,1.82v2.59h5.47v-2.55Z"/><path class="cls-9" d="M172.21,230.26c0-.66,1.65-1,4.06-1a52,52,0,0,1,10,1.23l2.79-2.24A51.89,51.89,0,0,0,179.1,227v-2.42h-5.47v2.49c-5.58.34-9.14,1.61-9.14,3.44,0,4.25,17,2.93,17,5.2,0,.73-1.79,1.15-4.75,1.15a40.43,40.43,0,0,1-11.33-1.8l-2.88,2.21a47.47,47.47,0,0,0,11.06,1.82v2.58h5.47v-2.55c5.85-.26,10.1-1.49,10.1-3.57,0-4.32-17-3.08-17-5.29Z"/><path class="cls-10" d="M138.74,231.88v-8.54c0-7.7,16.64-14,37.15-14s37.14,6.25,37.14,14v8.54c0,7.7-16.64,14-37.14,14s-37.15-6.25-37.15-14Z"/><g class="cls-51"><polygon class="cls-12" points="149.7 219.27 137.06 219.27 137.06 241.81 149.7 241.81 149.7 219.27 149.7 219.27"/><polygon class="cls-13" points="208.89 219.27 193.38 219.27 193.38 247.16 208.89 247.16 208.89 219.27 208.89 219.27"/><polygon class="cls-14" points="193.38 223.34 177.88 223.34 177.88 251.23 193.38 251.23 193.38 223.34 193.38 223.34"/></g><path class="cls-10" d="M175.89,209.39c20.5,0,37.14,6.25,37.14,14s-16.64,13.94-37.14,13.94-37.15-6.25-37.15-13.94,16.64-14,37.15-14Z"/><path class="cls-15" d="M175.89,209.82c19.87,0,36,6.06,36,13.52s-16.14,13.52-36,13.52-36-6.06-36-13.52,16.14-13.52,36-13.52Z"/><g class="cls-52"><path class="cls-17" d="M222.55,215l-8.19-3.07-69,25.88,8.19,3.07,69-25.88Zm-10.65-4-16.4-6.15L126.55,230.7l16.4,6.16,69-25.89Z"/></g><path class="cls-18" d="M175.89,211.69c17.13,0,31,5.22,31,11.65S193,235,175.89,235s-31-5.22-31-11.65,13.91-11.65,31-11.65Z"/><path class="cls-19" d="M175.89,212.45c16,0,29,4.88,29,10.89s-13,10.89-29,10.89-29-4.88-29-10.89,13-10.89,29-10.89Z"/><g class="cls-53"><path class="cls-10" d="M215.94,216.1l-7-2.65-59.35,22.28,7,2.64,59.34-22.27Zm-9.16-3.44-14.11-5.3-59.34,22.28,14.11,5.29,59.34-22.27Z"/></g><path class="cls-8" d="M179.1,229.75c5.85-.26,10.1-1.5,10.1-3.57v-.8c0-4-14.72-3.23-16.76-4.88a7.92,7.92,0,0,1,3.83-.6,51.32,51.32,0,0,1,10,1.24l2.79-2.25c-.25-.06,0-.79,0-.79a50.34,50.34,0,0,0-9.92-1.27v-2.42h-5.47v2.49c-5.58.34-9.14,1.61-9.14,3.44v.8c0,4,14.9,3.08,16.83,4.8-.54.48-2.16.75-4.54.75a40.43,40.43,0,0,1-11.33-1.8l-2.88,2.21c.24.07,0,.79,0,.79a46.44,46.44,0,0,0,11.06,1.82v2.59h5.47v-2.55Z"/><path class="cls-9" d="M172.21,220.09c0-.66,1.65-1,4.06-1a52,52,0,0,1,10,1.23L189,218.1a50.34,50.34,0,0,0-9.92-1.27v-2.42h-5.47v2.49c-5.58.34-9.14,1.61-9.14,3.44,0,4.25,17,2.93,17,5.2,0,.73-1.79,1.15-4.75,1.15a40.43,40.43,0,0,1-11.33-1.8l-2.88,2.21a47,47,0,0,0,11.06,1.81v2.59h5.47V229c5.85-.26,10.1-1.49,10.1-3.57,0-4.32-17-3.08-17-5.29Z"/><path class="cls-10" d="M135.45,221.44v-8.55c0-7.69,16.65-13.94,37.15-13.94s37.15,6.25,37.15,13.94v8.55c0,7.69-16.65,13.94-37.15,13.94s-37.15-6.25-37.15-13.94Z"/><g class="cls-54"><polygon class="cls-12" points="146.42 208.82 133.78 208.82 133.78 231.37 146.42 231.37 146.42 208.82 146.42 208.82"/><polygon class="cls-13" points="205.6 208.82 190.1 208.82 190.1 236.71 205.6 236.71 205.6 208.82 205.6 208.82"/><polygon class="cls-14" points="190.1 212.89 174.59 212.89 174.59 240.78 190.1 240.78 190.1 212.89 190.1 212.89"/></g><path class="cls-10" d="M172.6,199c20.5,0,37.15,6.25,37.15,13.94s-16.65,14-37.15,14-37.15-6.25-37.15-14S152.1,199,172.6,199Z"/><path class="cls-15" d="M172.6,199.37c19.88,0,36,6.06,36,13.52s-16.14,13.52-36,13.52-36-6.06-36-13.52,16.14-13.52,36-13.52Z"/><g class="cls-55"><path class="cls-17" d="M219.26,204.52l-8.18-3.07-69,25.88,8.19,3.08,68.95-25.89Zm-10.64-4-16.4-6.16-69,25.88,16.4,6.16,69-25.88Z"/></g><path class="cls-18" d="M172.6,201.24c17.13,0,31,5.22,31,11.65s-13.91,11.65-31,11.65-31-5.22-31-11.65,13.91-11.65,31-11.65Z"/><path class="cls-19" d="M172.6,202c16,0,29,4.88,29,10.89s-13,10.89-29,10.89-29-4.88-29-10.89,13-10.89,29-10.89Z"/><g class="cls-56"><path class="cls-10" d="M212.66,205.65l-7-2.64-59.34,22.27,7,2.65,59.34-22.28Zm-9.16-3.44-14.12-5.29L130,219.19l14.12,5.3,59.34-22.28Z"/></g><path class="cls-8" d="M175.82,219.3c5.85-.26,10.09-1.49,10.09-3.57,0-.14,0-.66,0-.79.05-4-14.72-3.23-16.76-4.89a8.16,8.16,0,0,1,3.84-.59,52,52,0,0,1,10,1.23l2.78-2.24c-.25-.06,0-.8,0-.8a51.89,51.89,0,0,0-9.91-1.27V204h-5.48v2.49c-5.57.34-9.13,1.61-9.13,3.45v.79c0,4,14.9,3.08,16.83,4.8-.55.48-2.17.75-4.55.75a39.94,39.94,0,0,1-11.32-1.8l-2.88,2.21c.24.08,0,.8,0,.8a46.8,46.8,0,0,0,11.05,1.81v2.59h5.48V219.3Z"/><path class="cls-9" d="M168.92,209.64c0-.65,1.65-1,4.07-1a51.32,51.32,0,0,1,10,1.24l2.78-2.25a51.89,51.89,0,0,0-9.91-1.27V204h-5.48v2.49c-5.57.34-9.13,1.61-9.13,3.45,0,4.25,17,2.93,17,5.19,0,.74-1.79,1.15-4.76,1.15a39.94,39.94,0,0,1-11.32-1.8l-2.88,2.21a46.26,46.26,0,0,0,11.05,1.82v2.59h5.48V218.5c5.85-.25,10.09-1.49,10.09-3.56.05-4.32-17-3.09-17-5.3Z"/><path class="cls-10" d="M138.74,214.11v-8.54c0-7.7,16.64-13.95,37.15-13.95S213,197.87,213,205.57v8.54c0,7.7-16.64,13.95-37.14,13.95s-37.15-6.25-37.15-13.95Z"/><g class="cls-57"><polygon class="cls-12" points="149.7 201.5 137.06 201.5 137.06 224.04 149.7 224.04 149.7 201.5 149.7 201.5"/><polygon class="cls-13" points="208.89 201.5 193.38 201.5 193.38 229.39 208.89 229.39 208.89 201.5 208.89 201.5"/><polygon class="cls-14" points="193.38 205.57 177.88 205.57 177.88 233.46 193.38 233.46 193.38 205.57 193.38 205.57"/></g><path class="cls-10" d="M175.89,191.62c20.5,0,37.14,6.25,37.14,13.95s-16.64,13.94-37.14,13.94-37.15-6.25-37.15-13.94,16.64-13.95,37.15-13.95Z"/><path class="cls-15" d="M175.89,192.05c19.87,0,36,6,36,13.52s-16.14,13.52-36,13.52-36-6.06-36-13.52,16.14-13.52,36-13.52Z"/><g class="cls-58"><path class="cls-17" d="M222.55,197.2l-8.19-3.08L145.4,220l8.19,3.07,69-25.88Zm-10.65-4-16.4-6.15-68.95,25.88,16.4,6.16,69-25.89Z"/></g><path class="cls-18" d="M175.89,193.92c17.13,0,31,5.22,31,11.65s-13.9,11.65-31,11.65-31-5.22-31-11.65,13.91-11.65,31-11.65Z"/><path class="cls-19" d="M175.89,194.68c16,0,29,4.88,29,10.89s-13,10.89-29,10.89-29-4.88-29-10.89,13-10.89,29-10.89Z"/><g class="cls-59"><path class="cls-10" d="M215.94,198.33l-7-2.65L149.55,218l7,2.64,59.34-22.27Zm-9.16-3.44-14.11-5.3-59.34,22.28,14.11,5.29,59.34-22.27Z"/></g><path class="cls-8" d="M179.1,212c5.85-.25,10.1-1.49,10.1-3.56v-.8c0-4-14.72-3.23-16.76-4.88a7.92,7.92,0,0,1,3.83-.6,51.32,51.32,0,0,1,10,1.24l2.79-2.25c-.25-.06,0-.8,0-.8a51.17,51.17,0,0,0-9.92-1.26v-2.42h-5.47v2.48c-5.58.35-9.14,1.62-9.14,3.45v.8c0,4,14.9,3.08,16.83,4.79-.54.49-2.16.75-4.54.75a40.07,40.07,0,0,1-11.33-1.8l-2.88,2.22c.24.07,0,.79,0,.79a46.44,46.44,0,0,0,11.06,1.82v2.59h5.47V212Z"/><path class="cls-9" d="M172.21,202.31c0-.65,1.65-1,4.06-1a52,52,0,0,1,10,1.23l2.79-2.25a51.17,51.17,0,0,0-9.92-1.26v-2.42h-5.47v2.48c-5.58.35-9.14,1.62-9.14,3.45,0,4.25,17,2.93,17,5.2,0,.73-1.79,1.14-4.75,1.14a40.07,40.07,0,0,1-11.33-1.8l-2.88,2.22a47,47,0,0,0,11.06,1.81v2.59h5.47v-2.55c5.85-.26,10.1-1.49,10.1-3.57,0-4.32-17-3.08-17-5.3Z"/><path class="cls-10" d="M141.38,200.53V192c0-7.69,16.65-13.94,37.15-13.94s37.15,6.25,37.15,13.94v8.55c0,7.7-16.64,13.94-37.15,13.94s-37.15-6.24-37.15-13.94Z"/><g class="cls-60"><polygon class="cls-12" points="152.35 187.92 139.71 187.92 139.71 210.46 152.35 210.46 152.35 187.92 152.35 187.92"/><polygon class="cls-13" points="211.53 187.92 196.03 187.92 196.03 215.81 211.53 215.81 211.53 187.92 211.53 187.92"/><polygon class="cls-14" points="196.03 191.98 180.52 191.98 180.52 219.87 196.03 219.87 196.03 191.98 196.03 191.98"/></g><path class="cls-10" d="M178.53,178c20.51,0,37.15,6.25,37.15,13.94s-16.64,14-37.15,14-37.15-6.25-37.15-14S158,178,178.53,178Z"/><path class="cls-15" d="M178.53,178.46c19.88,0,36,6.06,36,13.52s-16.14,13.52-36,13.52-36-6.06-36-13.52,16.13-13.52,36-13.52Z"/><g class="cls-61"><path class="cls-17" d="M225.2,183.61,217,180.54l-69,25.88,8.19,3.08,69-25.89Zm-10.65-4-16.4-6.16-69,25.89,16.4,6.15,69-25.88Z"/></g><path class="cls-18" d="M178.53,180.33c17.13,0,31,5.22,31,11.65s-13.91,11.65-31,11.65-31-5.22-31-11.65,13.91-11.65,31-11.65Z"/><path class="cls-19" d="M178.53,181.09c16,0,29,4.88,29,10.89s-13,10.89-29,10.89-29-4.88-29-10.89,13-10.89,29-10.89Z"/><g class="cls-62"><path class="cls-10" d="M218.59,184.74l-7.05-2.64L152.2,204.37l7.05,2.65,59.34-22.28Zm-9.16-3.43L195.31,176,136,198.28l14.12,5.3,59.34-22.27Z"/></g><path class="cls-8" d="M181.75,198.39c5.85-.26,10.1-1.49,10.1-3.57V194c0-4-14.72-3.23-16.76-4.89a8.08,8.08,0,0,1,3.83-.59,52,52,0,0,1,10,1.23l2.78-2.24c-.24-.06,0-.8,0-.8a51.67,51.67,0,0,0-9.91-1.27v-2.41h-5.48v2.48c-5.57.34-9.13,1.61-9.13,3.45v.79c0,4,14.9,3.08,16.83,4.8-.55.49-2.17.75-4.55.75a40,40,0,0,1-11.32-1.8l-2.88,2.21c.24.08,0,.8,0,.8a47.28,47.28,0,0,0,11.05,1.82V201h5.48v-2.56Z"/><path class="cls-9" d="M174.85,188.73c0-.65,1.65-1,4.07-1a51.32,51.32,0,0,1,10,1.24l2.78-2.25a51.67,51.67,0,0,0-9.91-1.27v-2.41h-5.48v2.48c-5.57.34-9.13,1.61-9.13,3.45,0,4.25,17,2.93,17,5.19,0,.74-1.79,1.15-4.76,1.15a40,40,0,0,1-11.32-1.8l-2.88,2.21a46.26,46.26,0,0,0,11.05,1.82v2.59h5.48v-2.56c5.85-.25,10.1-1.49,10.1-3.56,0-4.32-17-3.09-17-5.3Z"/><path class="cls-10" d="M137.49,191V182.4c0-7.7,16.64-13.94,37.14-13.94s37.15,6.24,37.15,13.94V191c0,7.69-16.64,13.94-37.15,13.94s-37.14-6.25-37.14-13.94Z"/><g class="cls-63"><polygon class="cls-12" points="148.45 178.33 135.81 178.33 135.81 200.88 148.45 200.88 148.45 178.33 148.45 178.33"/><polygon class="cls-13" points="207.63 178.33 192.13 178.33 192.13 206.22 207.63 206.22 207.63 178.33 207.63 178.33"/><polygon class="cls-14" points="192.13 182.4 176.62 182.4 176.62 210.29 192.13 210.29 192.13 182.4 192.13 182.4"/></g><path class="cls-10" d="M174.63,168.46c20.51,0,37.15,6.24,37.15,13.94s-16.64,13.94-37.15,13.94-37.14-6.24-37.14-13.94,16.64-13.94,37.14-13.94Z"/><path class="cls-15" d="M174.63,168.88c19.88,0,36,6.06,36,13.52s-16.14,13.52-36,13.52-36-6.06-36-13.52,16.14-13.52,36-13.52Z"/><g class="cls-64"><path class="cls-17" d="M221.3,174,213.11,171l-69,25.88,8.19,3.08,69-25.89Zm-10.65-4-16.4-6.16-69,25.88,16.41,6.16,69-25.88Z"/></g><path class="cls-18" d="M174.63,170.75c17.14,0,31,5.22,31,11.65s-13.9,11.65-31,11.65-31-5.22-31-11.65,13.9-11.65,31-11.65Z"/><path class="cls-19" d="M174.63,171.51c16,0,29,4.88,29,10.89s-13,10.89-29,10.89-29-4.88-29-10.89,13-10.89,29-10.89Z"/><g class="cls-65"><path class="cls-10" d="M214.69,175.16l-7.05-2.64L148.3,194.79l7,2.65,59.34-22.28Zm-9.16-3.44-14.11-5.3L132.08,188.7l14.11,5.3,59.34-22.28Z"/></g><path class="cls-8" d="M177.85,188.81c5.85-.26,10.1-1.49,10.1-3.57v-.79c0-4-14.72-3.23-16.76-4.89.53-.4,1.95-.59,3.83-.59a52,52,0,0,1,10,1.23l2.79-2.24c-.25-.07,0-.8,0-.8a51.89,51.89,0,0,0-9.92-1.27v-2.42h-5.47V176c-5.58.34-9.14,1.61-9.14,3.44v.8c0,4,14.9,3.08,16.83,4.8-.54.48-2.16.75-4.55.75A40.06,40.06,0,0,1,164.2,184l-2.88,2.21c.24.08,0,.8,0,.8a46.89,46.89,0,0,0,11.06,1.81v2.59h5.47v-2.55Z"/><path class="cls-9" d="M171,179.15c0-.65,1.65-1,4.07-1a52,52,0,0,1,10,1.23l2.79-2.24a51.89,51.89,0,0,0-9.92-1.27v-2.42h-5.47V176c-5.58.34-9.14,1.61-9.14,3.44,0,4.26,17,2.94,17,5.2,0,.74-1.79,1.15-4.76,1.15A40.06,40.06,0,0,1,164.2,184l-2.88,2.21A46.86,46.86,0,0,0,172.38,188v2.59h5.47V188c5.85-.26,10.1-1.49,10.1-3.56,0-4.33-17-3.09-17-5.3Z"/><path class="cls-10" d="M148.17,183.49v-8.55c0-7.69,16.65-13.94,37.15-13.94s37.15,6.25,37.15,13.94v8.55c0,7.7-16.65,13.95-37.15,13.95s-37.15-6.25-37.15-13.95Z"/><g class="cls-66"><polygon class="cls-12" points="159.14 170.88 146.49 170.88 146.49 193.42 159.14 193.42 159.14 170.88 159.14 170.88"/><polygon class="cls-13" points="218.32 170.88 202.81 170.88 202.81 198.77 218.32 198.77 218.32 170.88 218.32 170.88"/><polygon class="cls-14" points="202.81 174.94 187.31 174.94 187.31 202.83 202.81 202.83 202.81 174.94 202.81 174.94"/></g><path class="cls-10" d="M185.32,161c20.5,0,37.15,6.25,37.15,13.94s-16.65,13.95-37.15,13.95-37.15-6.25-37.15-13.95S164.82,161,185.32,161Z"/><path class="cls-15" d="M185.32,161.42c19.88,0,36,6.06,36,13.52s-16.14,13.52-36,13.52-36-6.05-36-13.52,16.14-13.52,36-13.52Z"/><g class="cls-67"><path class="cls-17" d="M232,166.58l-8.19-3.08-68.95,25.89,8.19,3.07L232,166.58Zm-10.64-4-16.4-6.16-69,25.89,16.4,6.15,69-25.88Z"/></g><path class="cls-18" d="M185.32,163.29c17.13,0,31,5.22,31,11.65s-13.91,11.66-31,11.66-31-5.22-31-11.66,13.91-11.65,31-11.65Z"/><path class="cls-19" d="M185.32,164.05c16,0,29,4.88,29,10.89s-13,10.9-29,10.9-29-4.88-29-10.9,13-10.89,29-10.89Z"/><g class="cls-68"><path class="cls-10" d="M225.38,167.71l-7-2.65L159,187.34l7,2.64,59.34-22.27Zm-9.16-3.44L202.1,159l-59.34,22.27,14.11,5.3,59.35-22.27Z"/></g><path class="cls-8" d="M188.54,181.35c5.85-.25,10.09-1.49,10.09-3.56V177c.05-4-14.72-3.23-16.76-4.89a8.16,8.16,0,0,1,3.84-.59,51.41,51.41,0,0,1,10,1.24l2.78-2.25c-.25-.06,0-.8,0-.8a51.89,51.89,0,0,0-9.91-1.27V166h-5.48v2.48c-5.57.35-9.13,1.61-9.13,3.45v.8c0,4,14.9,3.08,16.83,4.79-.55.49-2.17.75-4.55.75a40.07,40.07,0,0,1-11.33-1.8L172,178.7c.24.08,0,.8,0,.8a46.26,46.26,0,0,0,11.05,1.82v2.59h5.48v-2.56Z"/><path class="cls-9" d="M181.64,171.69c0-.65,1.65-1,4.07-1a51.41,51.41,0,0,1,10,1.24l2.78-2.25a51.89,51.89,0,0,0-9.91-1.27V166h-5.48v2.48c-5.57.35-9.13,1.61-9.13,3.45,0,4.25,17,2.93,17,5.19,0,.74-1.78,1.15-4.75,1.15a40.07,40.07,0,0,1-11.33-1.8L172,178.7a46.26,46.26,0,0,0,11.05,1.82v2.59h5.48v-2.55c5.85-.26,10.09-1.5,10.09-3.57.05-4.32-17-3.09-17-5.3Z"/><path class="cls-10" d="M64.84,164.88A37.16,37.16,0,1,1,27.68,202a37.18,37.18,0,0,1,37.16-37.16Z"/><path class="cls-10" d="M37.16,152.69A37.16,37.16,0,1,1,0,189.85a37.18,37.18,0,0,1,37.16-37.16Z"/><path class="cls-15" d="M37.16,153.82a36,36,0,1,1-36,36,36,36,0,0,1,36-36Z"/><g class="cls-69"><path class="cls-17" d="M83.83,167.55l-8.19-8.19-69,69,8.19,8.19,69-69ZM73.19,156.9,56.78,140.49l-69,69,16.4,16.4,69-69Z"/></g><path class="cls-70" d="M37.16,158.8a31.05,31.05,0,1,1-31,31,31.07,31.07,0,0,1,31.05-31Z"/><path class="cls-19" d="M6.12,190.4a31,31,0,1,1,31,30.5,31.06,31.06,0,0,1-31-30.5Z"/><g class="cls-71"><path class="cls-10" d="M83.83,167.55l-8.19-8.19-69,69,8.19,8.19,69-69ZM73.19,156.9,56.78,140.49l-69,69,16.4,16.4,69-69Z"/></g><path class="cls-8" d="M33.48,183.3c0-1.73,1.65-2.6,4.07-2.6s6.58,1.28,10,3.29l2.78-6a22.74,22.74,0,0,0-9.91-3.38v-6.44H34.9v6.63c-5.58.91-9.14,4.29-9.14,9.18,0,11.33,17,7.81,17,13.84,0,2-1.78,3.06-4.75,3.06-3.38,0-8-1.87-11.33-4.8L23.84,202a22.33,22.33,0,0,0,11.06,4.84v6.9h5.48v-6.81c5.85-.68,10.1-4,10.1-9.5,0-11.51-17-8.22-17-14.12Z"/><path class="cls-9" d="M33.48,182.2c0-1.74,1.65-2.61,4.07-2.61s6.58,1.28,10,3.29l2.78-6a22.49,22.49,0,0,0-9.91-3.38v-6.45H34.9v6.63c-5.58.91-9.14,4.29-9.14,9.18,0,11.33,17,7.81,17,13.84,0,2-1.78,3.06-4.75,3.06-3.38,0-8-1.87-11.33-4.79l-2.88,5.89a22.33,22.33,0,0,0,11.06,4.84v6.9h5.48v-6.81c5.85-.68,10.1-4,10.1-9.5,0-11.51-17-8.22-17-14.11Z"/><path class="cls-15" d="M64.84,166a36,36,0,1,1-36,36,36,36,0,0,1,36-36Z"/><g class="cls-72"><path class="cls-17" d="M111.52,179.74l-8.19-8.19-69,69,8.19,8.19,69-69Zm-10.65-10.65-16.41-16.4-69,69,16.4,16.41,69-69Z"/></g><path class="cls-70" d="M64.84,171a31,31,0,1,1-31.05,31,31.06,31.06,0,0,1,31.05-31Z"/><path class="cls-19" d="M33.8,202.59a31,31,0,1,1,31,30.5,31.06,31.06,0,0,1-31-30.5Z"/><g class="cls-73"><path class="cls-10" d="M111.52,179.74l-8.19-8.19-69,69,8.19,8.19,69-69Zm-10.65-10.65-16.41-16.4-69,69,16.4,16.41,69-69Z"/></g><path class="cls-8" d="M61.16,195.5c0-1.74,1.65-2.61,4.07-2.61s6.58,1.28,10,3.29l2.79-6a22.49,22.49,0,0,0-9.92-3.38v-6.45H62.58V187c-5.58.91-9.14,4.29-9.14,9.18,0,11.33,17,7.82,17,13.85,0,2-1.79,3.06-4.76,3.06-3.38,0-8-1.88-11.33-4.8l-2.88,5.89A22.43,22.43,0,0,0,62.58,219v6.9h5.48v-6.81c5.85-.69,10.1-4,10.1-9.51,0-11.51-17-8.22-17-14.11Z"/><path class="cls-9" d="M61.16,194.39c0-1.74,1.65-2.6,4.07-2.6s6.58,1.28,10,3.29l2.79-6a22.61,22.61,0,0,0-9.92-3.38v-6.44H62.58v6.62c-5.58.92-9.14,4.3-9.14,9.19,0,11.33,17,7.81,17,13.84,0,2-1.79,3.06-4.76,3.06-3.38,0-8-1.87-11.33-4.8l-2.88,5.9a22.51,22.51,0,0,0,11.06,4.84v6.9h5.48V218c5.85-.69,10.1-4,10.1-9.5,0-11.52-17-8.23-17-14.12Z"/><path class="cls-15" d="M58.24,45.92l1.88,9.93a10,10,0,0,0,7.18,7.8l6.81,1.89L68,66.79a10,10,0,0,0-7.88,8.07L58.24,85.15s-1.16-5.73-2.14-10.54a10,10,0,0,0-7.77-7.82l-6-1.25L49,63.64a10,10,0,0,0,7-7.53l2.19-10.19Z"/><path class="cls-15" d="M46.27,80.33l1.09,5.77a5.82,5.82,0,0,0,4.17,4.53l4,1.1-3.58.72a5.84,5.84,0,0,0-4.57,4.69c-.49,2.76-1.07,6-1.07,6L45,97a5.83,5.83,0,0,0-4.5-4.54l-3.46-.72,3.84-1.1A5.85,5.85,0,0,0,45,86.25l1.27-5.92Z"/><path class="cls-15" d="M189.25,26.31l-1.88,9.92A10,10,0,0,1,180.18,44l-6.8,1.88,6.15,1.25a10,10,0,0,1,7.88,8.07l1.84,10.3s1.16-5.74,2.14-10.55a10,10,0,0,1,7.77-7.81l6-1.26L198.49,44a10,10,0,0,1-7.05-7.54c-1-4.58-2.19-10.18-2.19-10.18Z"/><path class="cls-15" d="M172,54.14s-.6,3.13-1.09,5.77a5.85,5.85,0,0,1-4.18,4.53l-4,1.1,3.57.72A5.85,5.85,0,0,1,170.91,71c.49,2.76,1.07,6,1.07,6s.67-3.33,1.24-6.13a5.85,5.85,0,0,1,4.51-4.54l3.46-.72-3.85-1.1a5.84,5.84,0,0,1-4.09-4.38L172,54.14Z"/></svg>